<?xml version="1.0" encoding="utf-8"?>
<!-- Generator: Adobe Illustrator 16.0.0, SVG Export Plug-In . SVG Version: 6.00 Build 0)  -->
<!DOCTYPE svg PUBLIC "-//W3C//DTD SVG 1.1//EN" "http://www.w3.org/Graphics/SVG/1.1/DTD/svg11.dtd">
<svg version="1.1" id="RetailNext_Logo_Horizontal_RGB"
	 xmlns="http://www.w3.org/2000/svg" xmlns:xlink="http://www.w3.org/1999/xlink" x="0px" y="0px" width="178.664px"
	 height="35.293px" viewBox="0 0 178.664 35.293" enable-background="new 0 0 178.664 35.293" xml:space="preserve">
<path d="M46.51,26.979c1.497,0,2.254,0.793,2.254,0.793l-0.234,0.289c0,0-0.747-0.713-2.01-0.713c-1.552,0-2.732,1.219-2.732,2.852
	c0,1.641,1.173,2.938,2.76,2.938c1.354,0,2.137-0.855,2.137-0.855l0.244,0.271c0,0-0.848,0.955-2.381,0.955
	c-1.84,0-3.165-1.479-3.165-3.309C43.381,28.367,44.733,26.979,46.51,26.979z"/>
<path d="M52.124,28.783c1.29,0,2.336,1.018,2.336,2.334c0,1.344-1.046,2.391-2.336,2.391c-1.289,0-2.335-1.047-2.335-2.391
	C49.789,29.801,50.834,28.783,52.124,28.783z M52.124,33.137c1.072,0,1.939-0.875,1.939-2.02c0-1.117-0.867-1.965-1.939-1.965
	S50.186,30,50.186,31.117C50.186,32.264,51.051,33.137,52.124,33.137z"/>
<path d="M55.743,28.891h0.379v0.793c0,0.207-0.036,0.369-0.036,0.369h0.019c0.226-0.676,1.027-1.27,1.73-1.27
	c0.902,0,1.326,0.424,1.425,1.227h0.019c0.252-0.631,0.938-1.227,1.714-1.227c1.163,0,1.506,0.686,1.506,1.758V33.4H62.12v-2.727
	c0-0.848-0.172-1.541-1.128-1.541c-0.748,0-1.39,0.666-1.587,1.371c-0.063,0.207-0.09,0.432-0.09,0.693v2.199h-0.379v-2.725
	c0-0.773-0.108-1.541-1.102-1.541c-0.803,0-1.434,0.703-1.641,1.451c-0.055,0.188-0.072,0.396-0.072,0.613v2.199h-0.379V28.891
	L55.743,28.891z"/>
<path d="M64.052,28.891h0.38v0.541c0,0.207-0.027,0.361-0.027,0.361h0.019c0,0,0.37-1.01,1.623-1.01
	c1.209,0,1.948,0.965,1.948,2.361c0,1.436-0.84,2.363-2.002,2.363c-1.174,0-1.578-1.02-1.578-1.02h-0.02
	c0,0,0.037,0.162,0.037,0.396v2.318h-0.38V28.891z M65.992,33.137c0.884,0,1.604-0.729,1.604-1.992c0-1.217-0.648-1.992-1.568-1.992
	c-0.83,0-1.605,0.586-1.605,2.002C64.422,32.154,64.981,33.137,65.992,33.137z"/>
<path d="M69.313,28.891h0.379v0.855c0,0.209-0.035,0.371-0.035,0.371h0.018c0.227-0.695,0.73-1.264,1.443-1.264
	c0.135,0,0.262,0.027,0.262,0.027v0.379c0,0-0.107-0.018-0.208-0.018c-0.703,0-1.146,0.594-1.344,1.262
	c-0.099,0.316-0.136,0.65-0.136,0.947V33.4h-0.379V28.891L69.313,28.891z"/>
<path d="M74.065,28.783c1.226,0,1.838,0.965,1.838,2.055c0,0.1-0.018,0.244-0.018,0.244H72.27c0,1.307,0.883,2.057,1.93,2.057
	c0.865,0,1.396-0.566,1.396-0.566l0.209,0.313c0,0-0.633,0.623-1.605,0.623c-1.271,0-2.326-0.92-2.326-2.354
	C71.874,29.629,72.911,28.783,74.065,28.783z M75.507,30.729c-0.045-1.1-0.702-1.596-1.452-1.596c-0.828,0-1.596,0.541-1.758,1.596
	H75.507z"/>
<path d="M77.192,27.086h0.379v2.598c0,0.207-0.036,0.369-0.036,0.369h0.019c0.153-0.424,0.784-1.27,1.911-1.27
	c1.173,0,1.488,0.691,1.488,1.758V33.4h-0.379v-2.727c0-0.783-0.099-1.521-1.109-1.521c-0.848,0-1.596,0.594-1.821,1.434
	c-0.054,0.189-0.072,0.395-0.072,0.613v2.197h-0.379V27.086L77.192,27.086z"/>
<path d="M84.399,28.783c1.227,0,1.84,0.965,1.84,2.055c0,0.1-0.02,0.244-0.02,0.244h-3.615c0,1.307,0.883,2.057,1.931,2.057
	c0.864,0,1.397-0.566,1.397-0.566l0.207,0.313c0,0-0.632,0.623-1.604,0.623c-1.271,0-2.327-0.92-2.327-2.354
	C82.208,29.629,83.245,28.783,84.399,28.783z M85.842,30.729c-0.046-1.1-0.703-1.596-1.451-1.596c-0.83,0-1.598,0.541-1.76,1.596
	H85.842z"/>
<path d="M87.526,28.891h0.379v0.793c0,0.207-0.035,0.369-0.035,0.369h0.018c0.153-0.424,0.785-1.27,1.912-1.27
	c1.171,0,1.488,0.691,1.488,1.758V33.4h-0.379v-2.727c0-0.783-0.1-1.521-1.109-1.521c-0.848,0-1.597,0.594-1.82,1.434
	c-0.056,0.189-0.072,0.395-0.072,0.613v2.197h-0.379L87.526,28.891L87.526,28.891z"/>
<path d="M92.623,32.57c0,0,0.506,0.566,1.396,0.566c0.551,0,1.037-0.289,1.037-0.848c0-1.146-2.479-0.82-2.479-2.291
	c0-0.803,0.676-1.217,1.439-1.217c0.92,0,1.336,0.484,1.336,0.484l-0.227,0.309c0,0-0.369-0.424-1.137-0.424
	c-0.514,0-1.02,0.232-1.02,0.82c0,1.172,2.479,0.82,2.479,2.316c0,0.723-0.611,1.219-1.441,1.219c-1.092,0-1.633-0.648-1.633-0.648
	L92.623,32.57z"/>
<path d="M96.619,27.086h0.449v0.658h-0.449V27.086z M96.654,28.891h0.379v4.51h-0.379V28.891z"/>
<path d="M97.996,28.891h0.406l1.389,3.535c0.082,0.217,0.152,0.486,0.152,0.486h0.02c0,0,0.072-0.271,0.152-0.486l1.389-3.535h0.396
	l-1.768,4.51h-0.361L97.996,28.891z"/>
<path d="M104.617,28.783c1.227,0,1.84,0.965,1.84,2.055c0,0.1-0.018,0.244-0.018,0.244h-3.615c0,1.307,0.883,2.057,1.93,2.057
	c0.865,0,1.396-0.566,1.396-0.566l0.207,0.313c0,0-0.631,0.623-1.604,0.623c-1.271,0-2.328-0.92-2.328-2.354
	C102.426,29.629,103.463,28.783,104.617,28.783z M106.061,30.729c-0.045-1.1-0.703-1.596-1.451-1.596
	c-0.83,0-1.596,0.541-1.76,1.596H106.061z"/>
<path d="M110.25,27.086h0.387V33.4h-0.387V27.086z"/>
<path d="M112.381,28.891h0.379v0.793c0,0.207-0.035,0.369-0.035,0.369h0.02c0.15-0.424,0.781-1.27,1.91-1.27
	c1.174,0,1.486,0.691,1.486,1.758V33.4h-0.377v-2.727c0-0.783-0.1-1.521-1.109-1.521c-0.848,0-1.598,0.594-1.82,1.434
	c-0.057,0.189-0.072,0.395-0.072,0.613v2.197h-0.379L112.381,28.891L112.381,28.891z"/>
<path d="M117.428,30.666h2.488v0.361h-2.488V30.666z"/>
<path d="M120.91,32.426c0,0,0.641,0.703,1.688,0.703c0.783,0,1.406-0.486,1.406-1.244c0-1.795-3.23-1.299-3.23-3.271
	c0-0.842,0.75-1.635,1.896-1.635c1.025,0,1.604,0.588,1.604,0.588l-0.217,0.332c0,0-0.541-0.539-1.379-0.539
	c-0.939,0-1.498,0.631-1.498,1.242c0,1.668,3.23,1.154,3.23,3.266c0,0.912-0.703,1.643-1.832,1.643c-1.244,0-1.93-0.785-1.93-0.785
	L120.91,32.426z"/>
<path d="M125.725,29.26h-0.596v-0.342h0.596v-1.281h0.379v1.281h1.184v0.342h-1.184v2.48c0,1.189,0.713,1.344,1.072,1.344
	c0.127,0,0.209-0.018,0.209-0.018v0.352c0,0-0.092,0.018-0.227,0.018c-0.471,0-1.436-0.17-1.436-1.668V29.26H125.725z"/>
<path d="M130.203,28.783c1.289,0,2.336,1.018,2.336,2.334c0,1.344-1.047,2.391-2.336,2.391s-2.336-1.047-2.336-2.391
	C127.867,29.801,128.914,28.783,130.203,28.783z M130.203,33.137c1.072,0,1.938-0.875,1.938-2.02c0-1.117-0.865-1.965-1.938-1.965
	s-1.939,0.848-1.939,1.965C128.264,32.264,129.131,33.137,130.203,33.137z"/>
<path d="M133.82,28.891h0.379v0.855c0,0.209-0.035,0.371-0.035,0.371h0.018c0.229-0.695,0.73-1.264,1.443-1.264
	c0.135,0,0.262,0.027,0.262,0.027v0.379c0,0-0.109-0.018-0.207-0.018c-0.703,0-1.145,0.594-1.344,1.262
	c-0.102,0.316-0.137,0.65-0.137,0.947V33.4h-0.379V28.891z"/>
<path d="M138.57,28.783c1.229,0,1.842,0.965,1.842,2.055c0,0.1-0.02,0.244-0.02,0.244h-3.615c0,1.307,0.885,2.057,1.93,2.057
	c0.865,0,1.396-0.566,1.396-0.566l0.209,0.313c0,0-0.633,0.623-1.605,0.623c-1.271,0-2.326-0.92-2.326-2.354
	C136.381,29.629,137.418,28.783,138.57,28.783z M140.016,30.729c-0.045-1.1-0.703-1.596-1.453-1.596
	c-0.828,0-1.596,0.541-1.758,1.596H140.016z"/>
<path d="M147.299,31.217h-2.68l-0.813,2.184h-0.414l2.361-6.313h0.414l2.363,6.313h-0.414L147.299,31.217z M145.955,27.537
	c0,0-0.137,0.488-0.234,0.758l-0.965,2.561h2.406l-0.955-2.561c-0.1-0.27-0.234-0.758-0.234-0.758H145.955z"/>
<path d="M149.553,28.891h0.379v0.793c0,0.207-0.035,0.369-0.035,0.369h0.02c0.15-0.424,0.783-1.27,1.912-1.27
	c1.172,0,1.484,0.691,1.484,1.758V33.4h-0.377v-2.727c0-0.783-0.1-1.521-1.107-1.521c-0.85,0-1.6,0.594-1.822,1.434
	c-0.055,0.189-0.072,0.395-0.072,0.613v2.197h-0.377v-4.508h-0.004V28.891z"/>
<path d="M157.268,30.65h0.297v-0.154c0-1-0.514-1.344-1.234-1.344c-0.783,0-1.289,0.434-1.289,0.434l-0.217-0.307
	c0,0,0.539-0.496,1.523-0.496c1.037,0,1.596,0.576,1.596,1.705V33.4h-0.379v-0.596c0-0.244,0.035-0.406,0.035-0.406h-0.018
	c0.01,0-0.406,1.109-1.578,1.109c-0.73,0-1.533-0.406-1.533-1.309C154.471,30.666,156.465,30.65,157.268,30.65z M156.021,33.156
	c0.982,0,1.541-1.021,1.541-1.912V31h-0.287c-0.768,0-2.408,0-2.408,1.172C154.867,32.65,155.256,33.156,156.021,33.156z"/>
<path d="M159.447,27.086h0.379v5.285c0,0.631,0.324,0.703,0.531,0.703c0.072,0,0.137-0.008,0.137-0.008v0.352
	c0,0-0.08,0.018-0.162,0.018c-0.262,0-0.885-0.1-0.885-0.945V27.086z"/>
<path d="M160.959,34.715c0,0,0.254,0.217,0.561,0.217c0.434,0,0.703-0.387,0.883-0.811l0.324-0.748l-1.865-4.482h0.404l1.488,3.6
	c0.09,0.215,0.162,0.424,0.162,0.424h0.02c0,0,0.064-0.209,0.152-0.424l1.488-3.6h0.404l-2.316,5.564
	c-0.199,0.469-0.576,0.838-1.146,0.838c-0.432,0-0.729-0.252-0.729-0.252L160.959,34.715z"/>
<path d="M166.309,29.26h-0.594v-0.342h0.594v-1.281h0.379v1.281h1.184v0.342h-1.184v2.48c0,1.189,0.713,1.344,1.074,1.344
	c0.125,0,0.207-0.018,0.207-0.018v0.352c0,0-0.09,0.018-0.225,0.018c-0.471,0-1.436-0.17-1.436-1.668V29.26L166.309,29.26z"/>
<path d="M168.941,27.086h0.451v0.658h-0.451V27.086z M168.979,28.891h0.379v4.51h-0.379V28.891z"/>
<path d="M172.957,28.783c1.072,0,1.613,0.639,1.613,0.639l-0.234,0.307c0,0-0.516-0.574-1.379-0.574
	c-1.057,0-1.932,0.783-1.932,2.002c0,1.197,0.875,1.982,1.932,1.982c0.992,0,1.506-0.648,1.506-0.648l0.197,0.314
	c0,0-0.586,0.703-1.703,0.703c-1.271,0-2.328-0.92-2.328-2.354S171.703,28.783,172.957,28.783z"/>
<path d="M175.836,32.57c0,0,0.504,0.566,1.396,0.566c0.551,0,1.037-0.289,1.037-0.848c0-1.146-2.479-0.82-2.479-2.291
	c0-0.803,0.676-1.217,1.441-1.217c0.92,0,1.334,0.484,1.334,0.484l-0.227,0.309c0,0-0.369-0.424-1.135-0.424
	c-0.518,0-1.021,0.232-1.021,0.82c0,1.172,2.48,0.82,2.48,2.316c0,0.723-0.613,1.219-1.441,1.219c-1.092,0-1.633-0.648-1.633-0.648
	L175.836,32.57z"/>
<path fill="#00B1C4" d="M118.754,0h1.271l12.693,17.467c0.732,1.02,1.813,2.801,1.813,2.801h0.063c0,0-0.16-1.688-0.16-2.801V0
	h1.369v22.271h-1.271L121.84,4.803c-0.732-1.018-1.813-2.799-1.813-2.799h-0.064c0,0,0.16,1.688,0.16,2.799v17.469h-1.369V0
	L118.754,0z"/>
<path fill="#00B1C4" d="M146.813,5.981c4.328,0,6.49,3.403,6.49,7.254c0,0.351-0.063,0.858-0.063,0.858h-12.758
	c0,4.613,3.117,7.252,6.809,7.252c3.055,0,4.932-2.004,4.932-2.004l0.732,1.113c0,0-2.229,2.195-5.664,2.195
	c-4.486,0-8.207-3.244-8.207-8.305C139.082,8.971,142.74,5.981,146.813,5.981z M151.902,12.854c-0.158-3.883-2.48-5.633-5.121-5.633
	c-2.928,0-5.633,1.91-6.203,5.633H151.902z"/>
<path fill="#00B1C4" d="M161,13.871l-5.121-7.508h1.621l3.85,5.79c0.256,0.414,0.541,0.892,0.541,0.892h0.064
	c0,0,0.285-0.479,0.541-0.892l3.85-5.79h1.621l-5.121,7.508l5.729,8.4h-1.654l-4.393-6.586c-0.285-0.446-0.57-0.924-0.57-0.924
	h-0.064c0,0-0.256,0.445-0.572,0.924l-4.391,6.586h-1.654L161,13.871z"/>
<path fill="#00B1C4" d="M172.645,7.668h-2.1V6.459h2.1V1.94h1.336v4.519h4.168v1.209h-4.168v8.748c0,4.201,2.516,4.742,3.785,4.742
	c0.445,0,0.732-0.064,0.732-0.064v1.24c0,0-0.318,0.064-0.795,0.064c-1.654,0-5.061-0.604-5.061-5.887V7.666h0.002V7.668z"/>
<path d="M43.807,0h6.522c2.067,0,3.118,0.225,4.009,0.668c1.846,0.922,3.086,2.801,3.086,5.346c0,3.183-1.845,5.566-4.453,6.141
	v0.063c0,0,0.223,0.254,0.508,0.795l4.996,9.26h-1.623l-5.281-9.862h-6.396v9.862h-1.368V0z M51.221,11.135
	c2.926,0,4.771-2.101,4.771-5.123c0-1.973-0.986-3.563-2.609-4.295c-0.636-0.285-1.336-0.443-3.117-0.443h-5.091v9.861H51.221z"/>
<path d="M67.38,5.981c4.327,0,6.49,3.403,6.49,7.254c0,0.351-0.063,0.858-0.063,0.858H61.049c0,4.613,3.118,7.252,6.809,7.252
	c3.055,0,4.932-2.004,4.932-2.004l0.73,1.113c0,0-2.227,2.195-5.662,2.195c-4.486,0-8.209-3.244-8.209-8.305
	C59.649,8.971,63.309,5.981,67.38,5.981z M72.471,12.854c-0.16-3.883-2.482-5.633-5.123-5.633c-2.927,0-5.631,1.91-6.203,5.633
	H72.471z"/>
<path d="M78.706,7.668h-2.1V6.459h2.1V1.94h1.336v4.519h4.167v1.209h-4.167v8.748c0,4.201,2.514,4.742,3.786,4.742
	c0.446,0,0.731-0.064,0.731-0.064v1.24c0,0-0.317,0.064-0.795,0.064c-1.654,0-5.059-0.604-5.059-5.887V7.668z"/>
<path d="M96.584,12.566h1.049v-0.541c0-3.532-1.813-4.741-4.357-4.741c-2.768,0-4.548,1.527-4.548,1.527l-0.764-1.082
	c0,0,1.91-1.75,5.376-1.75c3.658,0,5.633,2.036,5.633,6.013V22.27h-1.338v-2.102c0-0.857,0.129-1.432,0.129-1.432h-0.063
	c0.029,0-1.434,3.912-5.568,3.912c-2.578,0-5.41-1.434-5.41-4.613C86.721,12.631,93.752,12.566,96.584,12.566z M92.193,21.412
	c3.469,0,5.439-3.596,5.439-6.746v-0.857h-1.018c-2.703,0-8.495,0-8.495,4.136C88.122,19.629,89.489,21.412,92.193,21.412z"/>
<path d="M104.059,0h1.59v2.322h-1.59V0z M104.186,6.362h1.336V22.27h-1.336V6.362z"/>
<path d="M110.801,0h1.336v18.645c0,2.227,1.146,2.479,1.877,2.479c0.256,0,0.48-0.031,0.48-0.031v1.24c0,0-0.287,0.064-0.572,0.064
	c-0.924,0-3.119-0.352-3.119-3.342L110.801,0L110.801,0z"/>
<rect x="11" y="11" fill="#FFD400" width="11" height="11"/>
<polygon fill="#00B1C4" points="22,33 22,22 33,22 "/>
<polygon fill="#00B1C4" points="11,11 0,11 11,0 "/>
<polygon points="22,11 22,22 33,22 33,11 33,0 "/>
<polygon fill="#6DCEEC" points="22,0 11,0 11,11 22,11 33,0 "/>
</svg>
